<svg width="600" height="80" viewBox="0 0 600 80" fill="none" xmlns="http://www.w3.org/2000/svg">
<path d="M600 0.83374H0V79.3148H600V0.83374Z" fill="white"/>
<path d="M600 0.83374H0V2.79577H600V0.83374Z" fill="#D7D7D7"/>
<path d="M223.07 51.3951V49.5115H225V51.3951H223.07ZM223.49 48.8542L222.99 43.8609V41.5555H225.07V43.8609L224.58 48.8542H223.49ZM215.71 47.834C215.71 48.5403 215.88 49.0798 216.22 49.4526C216.56 49.8254 216.98 50.0118 217.48 50.0118C217.98 50.0118 218.4 49.8254 218.74 49.4526C219.08 49.0798 219.25 48.5305 219.25 47.8144C219.25 47.1179 219.08 46.5783 218.74 46.2055C218.4 45.8327 217.98 45.6463 217.48 45.6463C216.98 45.6463 216.56 45.8327 216.22 46.2055C215.88 46.5783 215.71 47.1277 215.71 47.834ZM213.74 47.726C213.74 47.0982 213.9 46.49 214.21 45.9112C214.52 45.3225 214.97 44.8811 215.54 44.5672C216.12 44.2631 216.76 44.1061 217.47 44.1061C218.57 44.1061 219.47 44.4592 220.17 45.1558C220.87 45.8523 221.22 46.7353 221.22 47.8046C221.22 48.8837 220.86 49.7764 220.15 50.4827C219.44 51.189 218.55 51.5422 217.48 51.5422C216.81 51.5422 216.18 51.3951 215.57 51.1007C214.97 50.8064 214.51 50.3749 214.2 49.8059C213.89 49.2467 213.74 48.5501 213.74 47.726ZM210.57 51.3951H208.65V44.2729H210.43V45.2833C210.74 44.8026 211.01 44.4887 211.25 44.3416C211.5 44.1944 211.77 44.1159 212.08 44.1159C212.52 44.1159 212.94 44.2337 213.34 44.4691L212.75 46.1074C212.43 45.9014 212.13 45.8033 211.85 45.8033C211.58 45.8033 211.35 45.8817 211.17 46.0289C210.98 46.176 210.84 46.4311 210.73 46.8137C210.63 47.1963 210.57 47.9909 210.57 49.1975V51.3951ZM204.95 51.3951V50.3257C204.69 50.7083 204.34 51.0027 203.9 51.2283C203.47 51.4441 203.02 51.552 202.54 51.552C202.05 51.552 201.61 51.4441 201.23 51.2381C200.84 51.0321 200.56 50.7378 200.39 50.3552C200.22 49.9726 200.13 49.4527 200.13 48.7758V44.2729H202.05V47.5495C202.05 48.5501 202.08 49.1682 202.15 49.3938C202.22 49.6194 202.35 49.7959 202.54 49.9333C202.73 50.0608 202.96 50.1296 203.25 50.1296C203.58 50.1296 203.87 50.0412 204.13 49.8647C204.39 49.6881 204.57 49.4624 204.66 49.2073C204.76 48.9425 204.8 48.3048 204.8 47.2846V44.2828H206.72V51.4048H204.95V51.3951ZM198.83 44.2729V45.7738H197.52V48.6482C197.52 49.227 197.53 49.5704 197.55 49.6685C197.58 49.7666 197.63 49.8451 197.72 49.9039C197.81 49.9628 197.92 50.002 198.05 50.002C198.23 50.002 198.49 49.9431 198.82 49.8254L198.98 51.2871C198.53 51.4735 198.03 51.5716 197.46 51.5716C197.11 51.5716 196.8 51.5127 196.52 51.4048C196.24 51.2871 196.04 51.14 195.9 50.9634C195.77 50.777 195.68 50.5317 195.63 50.2276C195.59 50.0118 195.57 49.5704 195.57 48.9033V45.7934H194.69V44.2925H195.57V42.8799L197.5 41.7811V44.2925H198.83V44.2729ZM191.73 51.3951V50.3257C191.47 50.7083 191.12 51.0027 190.68 51.2283C190.25 51.4441 189.8 51.552 189.32 51.552C188.83 51.552 188.39 51.4441 188.01 51.2381C187.62 51.0321 187.34 50.7378 187.17 50.3552C187 49.9726 186.91 49.4527 186.91 48.7758V44.2729H188.83V47.5495C188.83 48.5501 188.86 49.1682 188.93 49.3938C189 49.6194 189.13 49.7959 189.32 49.9333C189.51 50.0608 189.74 50.1296 190.03 50.1296C190.36 50.1296 190.65 50.0412 190.91 49.8647C191.17 49.6881 191.35 49.4624 191.44 49.2073C191.54 48.9425 191.58 48.3048 191.58 47.2846V44.2828H193.5V51.4048H191.73V51.3951ZM181.44 44.2729H182.51V43.7333C182.51 43.1349 182.57 42.6837 182.7 42.3894C182.83 42.095 183.07 41.8596 183.42 41.6732C183.77 41.4868 184.21 41.3887 184.75 41.3887C185.3 41.3887 185.83 41.4672 186.36 41.634L186.1 42.9485C185.79 42.8798 185.5 42.8406 185.22 42.8406C184.94 42.8406 184.74 42.9093 184.62 43.0369C184.5 43.1644 184.44 43.4096 184.44 43.7726V44.2729H185.88V45.7543H184.44V51.3951H182.52V45.7543H181.45V44.2729H181.44ZM171.35 47.834C171.35 48.5403 171.52 49.0798 171.86 49.4526C172.2 49.8254 172.62 50.0118 173.12 50.0118C173.62 50.0118 174.04 49.8254 174.38 49.4526C174.72 49.0798 174.89 48.5305 174.89 47.8144C174.89 47.1179 174.72 46.5783 174.38 46.2055C174.04 45.8327 173.62 45.6463 173.12 45.6463C172.62 45.6463 172.2 45.8327 171.86 46.2055C171.52 46.5783 171.35 47.1277 171.35 47.834ZM169.39 47.726C169.39 47.0982 169.55 46.49 169.86 45.9112C170.17 45.3225 170.62 44.8811 171.19 44.5672C171.77 44.2631 172.41 44.1061 173.12 44.1061C174.22 44.1061 175.12 44.4592 175.82 45.1558C176.52 45.8523 176.87 46.7353 176.87 47.8046C176.87 48.8837 176.51 49.7764 175.8 50.4827C175.09 51.189 174.2 51.5422 173.13 51.5422C172.46 51.5422 171.83 51.3951 171.22 51.1007C170.62 50.8064 170.16 50.3749 169.85 49.8059C169.54 49.2467 169.39 48.5501 169.39 47.726ZM162.15 47.9713C161.9 48.0497 161.51 48.1479 160.98 48.2558C160.45 48.3637 160.1 48.4815 159.93 48.5796C159.68 48.7562 159.55 48.9719 159.55 49.2466C159.55 49.5115 159.65 49.7371 159.85 49.9333C160.05 50.1295 160.31 50.2178 160.62 50.2178C160.97 50.2178 161.3 50.1099 161.61 49.8843C161.84 49.7175 162 49.5017 162.07 49.2564C162.12 49.0995 162.15 48.7856 162.15 48.3343V47.9713ZM159.58 46.4409L157.84 46.1368C158.04 45.4501 158.37 44.94 158.85 44.6065C159.33 44.2729 160.04 44.1061 160.98 44.1061C161.84 44.1061 162.47 44.2043 162.89 44.4103C163.31 44.6065 163.6 44.8615 163.77 45.1656C163.94 45.4697 164.03 46.029 164.03 46.853L164.01 49.0505C164.01 49.6783 164.04 50.1393 164.1 50.4434C164.16 50.7377 164.28 51.0517 164.45 51.3951H162.55C162.5 51.2676 162.44 51.0811 162.37 50.8359C162.34 50.7279 162.32 50.6495 162.3 50.6102C161.97 50.9242 161.62 51.1596 161.25 51.3165C160.88 51.4735 160.48 51.552 160.05 51.552C159.3 51.552 158.71 51.3558 158.28 50.9536C157.85 50.5514 157.64 50.051 157.64 49.4428C157.64 49.0406 157.74 48.6874 157.93 48.3735C158.13 48.0596 158.4 47.8143 158.75 47.6476C159.11 47.4808 159.62 47.3337 160.28 47.2062C161.18 47.0394 161.8 46.8823 162.15 46.745V46.5587C162.15 46.1957 162.06 45.9406 161.88 45.7836C161.7 45.6267 161.35 45.5482 160.85 45.5482C160.51 45.5482 160.24 45.6169 160.05 45.7543C159.85 45.8818 159.69 46.1074 159.58 46.4409ZM154.52 51.3951H152.6V44.2729H154.38V45.2833C154.69 44.8026 154.96 44.4887 155.2 44.3416C155.45 44.1944 155.72 44.1159 156.03 44.1159C156.47 44.1159 156.89 44.2337 157.29 44.4691L156.7 46.1074C156.38 45.9014 156.08 45.8033 155.8 45.8033C155.53 45.8033 155.3 45.8817 155.12 46.0289C154.93 46.176 154.79 46.4311 154.68 46.8137C154.58 47.1963 154.52 47.9909 154.52 49.1975V51.3951ZM148.9 47.9713C148.65 48.0497 148.26 48.1479 147.73 48.2558C147.2 48.3637 146.85 48.4815 146.68 48.5796C146.43 48.7562 146.3 48.9719 146.3 49.2466C146.3 49.5115 146.4 49.7371 146.6 49.9333C146.8 50.1295 147.06 50.2178 147.37 50.2178C147.72 50.2178 148.05 50.1099 148.36 49.8843C148.59 49.7175 148.75 49.5017 148.82 49.2564C148.87 49.0995 148.9 48.7856 148.9 48.3343V47.9713ZM146.33 46.4409L144.59 46.1368C144.79 45.4501 145.12 44.94 145.6 44.6065C146.08 44.2729 146.79 44.1061 147.73 44.1061C148.59 44.1061 149.22 44.2043 149.64 44.4103C150.06 44.6065 150.35 44.8615 150.52 45.1656C150.69 45.4697 150.78 46.029 150.78 46.853L150.76 49.0505C150.76 49.6783 150.79 50.1393 150.85 50.4434C150.91 50.7377 151.03 51.0517 151.2 51.3951H149.3C149.25 51.2676 149.19 51.0811 149.12 50.8359C149.09 50.7279 149.07 50.6495 149.05 50.6102C148.72 50.9242 148.37 51.1596 148 51.3165C147.63 51.4735 147.23 51.552 146.8 51.552C146.05 51.552 145.46 51.3558 145.03 50.9536C144.6 50.5514 144.39 50.051 144.39 49.4428C144.39 49.0406 144.49 48.6874 144.68 48.3735C144.88 48.0596 145.15 47.8143 145.5 47.6476C145.86 47.4808 146.37 47.3337 147.03 47.2062C147.93 47.0394 148.55 46.8823 148.9 46.745V46.5587C148.9 46.1957 148.81 45.9406 148.63 45.7836C148.45 45.6267 148.1 45.5482 147.6 45.5482C147.26 45.5482 146.99 45.6169 146.8 45.7543C146.6 45.8818 146.45 46.1074 146.33 46.4409ZM138.18 47.7065C138.18 48.5109 138.34 49.0995 138.67 49.4821C138.99 49.8647 139.39 50.0511 139.85 50.0511C140.3 50.0511 140.67 49.8745 140.96 49.5312C141.26 49.178 141.4 48.5992 141.4 47.8046C141.4 47.059 141.25 46.4997 140.94 46.1368C140.63 45.7738 140.26 45.5973 139.81 45.5973C139.34 45.5973 138.95 45.7738 138.64 46.1368C138.33 46.4899 138.18 47.01 138.18 47.7065ZM136.28 44.2729H138.07V45.3226C138.3 44.9694 138.62 44.6751 139.01 44.4495C139.41 44.2238 139.85 44.1159 140.33 44.1159C141.17 44.1159 141.89 44.4397 142.48 45.0871C143.07 45.7346 143.36 46.6371 143.36 47.7947C143.36 48.9818 143.06 49.9137 142.47 50.571C141.88 51.2282 141.16 51.552 140.32 51.552C139.92 51.552 139.55 51.4735 139.23 51.3165C138.91 51.1596 138.56 50.8948 138.2 50.5122V54.1026H136.28V44.2729ZM125.4 47.834C125.4 48.5403 125.57 49.0798 125.91 49.4526C126.25 49.8254 126.67 50.0118 127.17 50.0118C127.67 50.0118 128.09 49.8254 128.43 49.4526C128.77 49.0798 128.94 48.5305 128.94 47.8144C128.94 47.1179 128.77 46.5783 128.43 46.2055C128.09 45.8327 127.67 45.6463 127.17 45.6463C126.67 45.6463 126.25 45.8327 125.91 46.2055C125.57 46.5783 125.4 47.1277 125.4 47.834ZM123.43 47.726C123.43 47.0982 123.59 46.49 123.9 45.9112C124.21 45.3225 124.66 44.8811 125.23 44.5672C125.81 44.2631 126.45 44.1061 127.16 44.1061C128.26 44.1061 129.16 44.4592 129.86 45.1558C130.56 45.8523 130.91 46.7353 130.91 47.8046C130.91 48.8837 130.55 49.7764 129.84 50.4827C129.13 51.189 128.24 51.5422 127.17 51.5422C126.5 51.5422 125.87 51.3951 125.26 51.1007C124.66 50.8064 124.2 50.3749 123.89 49.8059C123.59 49.2467 123.43 48.5501 123.43 47.726ZM119.98 51.3951V44.2729H121.9V51.3951H119.98ZM119.98 43.3017V41.5555H121.9V43.3017H119.98ZM118.52 46.3723L116.63 46.7058C116.57 46.333 116.42 46.0584 116.19 45.872C115.97 45.6856 115.68 45.5875 115.31 45.5875C114.83 45.5875 114.45 45.7542 114.16 46.078C113.88 46.4017 113.74 46.9413 113.74 47.6967C113.74 48.5403 113.88 49.1387 114.17 49.4919C114.46 49.845 114.85 50.0118 115.34 50.0118C115.7 50.0118 116 49.9137 116.24 49.7077C116.47 49.5017 116.64 49.1485 116.73 48.658L118.62 48.9719C118.42 49.8254 118.05 50.4631 117.49 50.8948C116.93 51.3264 116.19 51.5422 115.25 51.5422C114.19 51.5422 113.34 51.2184 112.71 50.5611C112.08 49.9039 111.77 48.9916 111.77 47.834C111.77 46.6568 112.09 45.7444 112.72 45.0871C113.35 44.4299 114.21 44.1061 115.29 44.1061C116.17 44.1061 116.88 44.2925 117.4 44.6652C117.92 45.038 118.29 45.6071 118.52 46.3723ZM105.96 43.3998L106.9 41.3985H109.05L107.17 43.3998H105.96ZM105.16 47.834C105.16 48.5403 105.33 49.0798 105.67 49.4526C106.01 49.8254 106.43 50.0118 106.93 50.0118C107.43 50.0118 107.85 49.8254 108.19 49.4526C108.53 49.0798 108.7 48.5305 108.7 47.8144C108.7 47.1179 108.53 46.5783 108.19 46.2055C107.85 45.8327 107.43 45.6463 106.93 45.6463C106.43 45.6463 106.01 45.8327 105.67 46.2055C105.33 46.5783 105.16 47.1277 105.16 47.834ZM103.19 47.726C103.19 47.0982 103.35 46.49 103.66 45.9112C103.97 45.3225 104.42 44.8811 104.99 44.5672C105.57 44.2631 106.21 44.1061 106.92 44.1061C108.02 44.1061 108.92 44.4592 109.62 45.1558C110.32 45.8523 110.67 46.7353 110.67 47.8046C110.67 48.8837 110.31 49.7764 109.6 50.4827C108.89 51.189 108 51.5422 106.93 51.5422C106.26 51.5422 105.63 51.3951 105.02 51.1007C104.42 50.8064 103.96 50.3749 103.65 49.8059C103.34 49.2467 103.19 48.5501 103.19 47.726ZM96.6098 47.6868C96.6098 48.4422 96.7598 49.0014 97.0498 49.3545C97.3498 49.7077 97.7198 49.8745 98.1598 49.8745C98.6298 49.8745 99.0298 49.6979 99.3498 49.3349C99.6698 48.9719 99.8398 48.4422 99.8398 47.7358C99.8398 47.0001 99.6898 46.4508 99.3798 46.0976C99.0698 45.7444 98.6798 45.558 98.1998 45.558C97.7398 45.558 97.3598 45.7346 97.0598 46.0878C96.7598 46.4311 96.6098 46.9609 96.6098 47.6868ZM94.8898 51.8561L97.0798 52.121C97.1198 52.3761 97.1998 52.5428 97.3298 52.6409C97.5098 52.7782 97.7998 52.847 98.1898 52.847C98.6898 52.847 99.0698 52.7685 99.3198 52.6214C99.4898 52.5233 99.6198 52.3662 99.6998 52.1406C99.7598 51.9836 99.7898 51.6992 99.7898 51.2774V50.2375C99.2198 51.0026 98.4898 51.3951 97.6198 51.3951C96.6398 51.3951 95.8698 50.9928 95.2998 50.1785C94.8498 49.5409 94.6298 48.7463 94.6298 47.7947C94.6298 46.5979 94.9198 45.6855 95.5098 45.0577C96.0998 44.4298 96.8298 44.1159 97.6998 44.1159C98.5998 44.1159 99.3398 44.4985 99.9198 45.2735V44.2729H101.72V50.6593C101.72 51.503 101.65 52.1308 101.51 52.5428C101.37 52.9548 101.17 53.2884 100.92 53.5238C100.66 53.7593 100.32 53.9457 99.8898 54.0831C99.4698 54.2204 98.9298 54.289 98.2798 54.289C97.0498 54.289 96.1798 54.083 95.6598 53.6612C95.1498 53.2492 94.8898 52.7292 94.8898 52.0916C94.8898 52.0229 94.8898 51.9444 94.8898 51.8561ZM91.5898 47.216C91.5798 46.6666 91.4298 46.2546 91.1598 45.9799C90.8898 45.6954 90.5498 45.5482 90.1598 45.5482C89.7398 45.5482 89.3898 45.6954 89.1198 45.9995C88.8498 46.3036 88.7098 46.7059 88.7198 47.216H91.5898ZM91.4798 49.1191L93.3898 49.4331C93.1398 50.1198 92.7498 50.6495 92.2198 51.0125C91.6898 51.3657 91.0298 51.552 90.2298 51.552C88.9698 51.552 88.0298 51.1498 87.4298 50.3355C86.9498 49.6881 86.7098 48.8738 86.7098 47.883C86.7098 46.7058 87.0198 45.7837 87.6498 45.1166C88.2798 44.4495 89.0698 44.1061 90.0398 44.1061C91.1198 44.1061 91.9698 44.4592 92.5998 45.1558C93.2198 45.8523 93.5198 46.9216 93.4998 48.3637H88.6898C88.6998 48.9229 88.8598 49.3546 89.1498 49.6685C89.4498 49.9726 89.8198 50.1296 90.2598 50.1296C90.5598 50.1296 90.8098 50.0511 91.0198 49.8843C91.2298 49.7175 91.3798 49.4821 91.4798 49.1191ZM85.3198 51.3951H83.3998V47.7555C83.3998 46.9903 83.3598 46.4899 83.2798 46.2643C83.1998 46.0387 83.0598 45.8622 82.8798 45.7346C82.6998 45.6071 82.4798 45.5482 82.2198 45.5482C81.8898 45.5482 81.5898 45.6365 81.3198 45.8131C81.0598 45.9897 80.8698 46.2251 80.7698 46.5194C80.6698 46.8137 80.6298 47.3631 80.6298 48.1577V51.3853H78.7098V44.2631H80.4898V45.3128C81.1198 44.5083 81.9198 44.1061 82.8798 44.1061C83.2998 44.1061 83.6898 44.1846 84.0398 44.3317C84.3898 44.4789 84.6598 44.6654 84.8298 44.9008C85.0098 45.1362 85.1398 45.4011 85.2098 45.6954C85.2798 45.9897 85.3198 46.4115 85.3198 46.9609V51.3951ZM71.0398 51.3951V50.3257C70.7798 50.7083 70.4298 51.0027 69.9898 51.2283C69.5598 51.4441 69.1098 51.552 68.6298 51.552C68.1398 51.552 67.6998 51.4441 67.3198 51.2381C66.9298 51.0321 66.6498 50.7378 66.4798 50.3552C66.3098 49.9726 66.2198 49.4527 66.2198 48.7758V44.2729H68.1398V47.5495C68.1398 48.5501 68.1698 49.1682 68.2398 49.3938C68.3098 49.6194 68.4398 49.7959 68.6298 49.9333C68.8198 50.0608 69.0498 50.1296 69.3398 50.1296C69.6698 50.1296 69.9598 50.0412 70.2198 49.8647C70.4798 49.6881 70.6598 49.4624 70.7498 49.2073C70.8498 48.9425 70.8898 48.3048 70.8898 47.2846V44.2828H72.8098V51.4048H71.0398V51.3951ZM62.7898 47.216C62.7798 46.6666 62.6298 46.2546 62.3598 45.9799C62.0898 45.6954 61.7498 45.5482 61.3598 45.5482C60.9398 45.5482 60.5898 45.6954 60.3198 45.9995C60.0498 46.3036 59.9098 46.7059 59.9198 47.216H62.7898ZM62.6798 49.1191L64.5898 49.4331C64.3398 50.1198 63.9498 50.6495 63.4198 51.0125C62.8898 51.3657 62.2298 51.552 61.4298 51.552C60.1698 51.552 59.2298 51.1498 58.6298 50.3355C58.1498 49.6881 57.9098 48.8738 57.9098 47.883C57.9098 46.7058 58.2198 45.7837 58.8498 45.1166C59.4798 44.4495 60.2698 44.1061 61.2398 44.1061C62.3198 44.1061 63.1698 44.4592 63.7998 45.1558C64.4198 45.8523 64.7198 46.9216 64.6998 48.3637H59.8898C59.8998 48.9229 60.0598 49.3546 60.3498 49.6685C60.6498 49.9726 61.0198 50.1296 61.4598 50.1296C61.7598 50.1296 62.0098 50.0511 62.2198 49.8843C62.4298 49.7175 62.5698 49.4821 62.6798 49.1191ZM49.9998 49.3545L51.9298 49.0701C52.0098 49.4331 52.1798 49.7176 52.4298 49.9039C52.6798 50.0903 53.0298 50.1884 53.4798 50.1884C53.9798 50.1884 54.3498 50.1002 54.5998 49.9236C54.7698 49.7961 54.8498 49.6293 54.8498 49.4233C54.8498 49.2761 54.7998 49.1584 54.7098 49.0701C54.6098 48.9818 54.3998 48.8935 54.0698 48.8249C52.5198 48.4913 51.5398 48.1871 51.1198 47.9026C50.5498 47.52 50.2598 46.9805 50.2598 46.3036C50.2598 45.6855 50.5098 45.1656 51.0098 44.7438C51.5098 44.322 52.2798 44.1159 53.3198 44.1159C54.3098 44.1159 55.0498 44.2729 55.5298 44.5966C56.0098 44.9106 56.3498 45.3814 56.5298 46.0092L54.7198 46.333C54.6398 46.0584 54.4898 45.8425 54.2798 45.6954C54.0698 45.5482 53.7598 45.4697 53.3598 45.4697C52.8498 45.4697 52.4898 45.5384 52.2698 45.6757C52.1198 45.7738 52.0498 45.9014 52.0498 46.0583C52.0498 46.1957 52.1098 46.3036 52.2398 46.4017C52.4098 46.5292 53.0098 46.7058 54.0298 46.9314C55.0598 47.1571 55.7698 47.4415 56.1798 47.7653C56.5798 48.0988 56.7798 48.5698 56.7798 49.1682C56.7798 49.8255 56.4998 50.3846 55.9498 50.8555C55.3898 51.3264 54.5698 51.5618 53.4798 51.5618C52.4898 51.5618 51.7098 51.3656 51.1298 50.9732C50.5598 50.571 50.1798 50.0314 49.9998 49.3545ZM39.7498 47.834C39.7498 48.5403 39.9198 49.0798 40.2598 49.4526C40.5998 49.8254 41.0198 50.0118 41.5198 50.0118C42.0198 50.0118 42.4398 49.8254 42.7798 49.4526C43.1198 49.0798 43.2898 48.5305 43.2898 47.8144C43.2898 47.1179 43.1198 46.5783 42.7798 46.2055C42.4398 45.8327 42.0198 45.6463 41.5198 45.6463C41.0198 45.6463 40.5998 45.8327 40.2598 46.2055C39.9198 46.5783 39.7498 47.1277 39.7498 47.834ZM37.7798 47.726C37.7798 47.0982 37.9398 46.49 38.2498 45.9112C38.5598 45.3225 39.0098 44.8811 39.5798 44.5672C40.1598 44.2631 40.7998 44.1061 41.5098 44.1061C42.6098 44.1061 43.5098 44.4592 44.2098 45.1558C44.9098 45.8523 45.2598 46.7353 45.2598 47.8046C45.2598 48.8837 44.8998 49.7764 44.1898 50.4827C43.4798 51.189 42.5898 51.5422 41.5198 51.5422C40.8498 51.5422 40.2198 51.3951 39.6098 51.1007C39.0098 50.8064 38.5498 50.3749 38.2398 49.8059C37.9398 49.2467 37.7798 48.5501 37.7798 47.726ZM130.83 32.1378C130.83 32.8441 131 33.3836 131.34 33.7564C131.68 34.1292 132.1 34.3156 132.6 34.3156C133.1 34.3156 133.52 34.1292 133.86 33.7564C134.2 33.3836 134.37 32.8343 134.37 32.1182C134.37 31.4217 134.2 30.8821 133.86 30.5093C133.52 30.1365 133.1 29.9501 132.6 29.9501C132.1 29.9501 131.68 30.1365 131.34 30.5093C131 30.8821 130.83 31.4315 130.83 32.1378ZM128.86 32.0298C128.86 31.402 129.02 30.7938 129.33 30.215C129.64 29.6263 130.09 29.1849 130.66 28.871C131.24 28.5669 131.88 28.4099 132.59 28.4099C133.69 28.4099 134.59 28.763 135.29 29.4596C135.99 30.1561 136.34 31.0391 136.34 32.1084C136.34 33.1875 135.98 34.0802 135.27 34.7865C134.56 35.4928 133.67 35.846 132.6 35.846C131.93 35.846 131.3 35.6989 130.69 35.4045C130.09 35.1102 129.63 34.6787 129.32 34.1097C129.02 33.5505 128.86 32.8539 128.86 32.0298ZM122.28 31.9808C122.28 32.7362 122.39 33.2953 122.6 33.6289C122.91 34.1194 123.34 34.3646 123.9 34.3646C124.34 34.3646 124.72 34.1783 125.03 33.8153C125.34 33.4425 125.49 32.8931 125.49 32.1573C125.49 31.3431 125.34 30.7546 125.04 30.3916C124.74 30.0286 124.35 29.852 123.88 29.852C123.42 29.852 123.04 30.0286 122.73 30.3916C122.43 30.7448 122.28 31.2745 122.28 31.9808ZM127.41 35.6989H125.63V34.6491C125.33 35.0514 124.98 35.3555 124.58 35.5615C124.18 35.7577 123.77 35.8558 123.36 35.8558C122.53 35.8558 121.81 35.532 121.21 34.8748C120.62 34.2175 120.32 33.2954 120.32 32.1084C120.32 30.9017 120.61 29.9893 121.19 29.3615C121.77 28.7336 122.5 28.4197 123.38 28.4197C124.19 28.4197 124.89 28.7533 125.49 29.4106V25.8691H127.41V35.6989ZM118.79 35.6989H116.87V32.0593C116.87 31.2941 116.83 30.7937 116.75 30.5681C116.67 30.3425 116.53 30.166 116.35 30.0384C116.17 29.9109 115.95 29.852 115.69 29.852C115.36 29.852 115.06 29.9403 114.79 30.1169C114.53 30.2935 114.34 30.5289 114.24 30.8232C114.14 31.1175 114.1 31.6669 114.1 32.4615V35.6891H112.18V28.5669H113.96V29.6165C114.59 28.8121 115.39 28.4099 116.35 28.4099C116.77 28.4099 117.16 28.4884 117.51 28.6355C117.86 28.7827 118.13 28.9692 118.3 29.2046C118.48 29.44 118.61 29.7049 118.68 29.9992C118.75 30.2935 118.79 30.7153 118.79 31.2647V35.6989ZM108.4 32.2751C108.15 32.3535 107.76 32.4517 107.23 32.5596C106.7 32.6675 106.35 32.7853 106.18 32.8834C105.93 33.06 105.8 33.2757 105.8 33.5504C105.8 33.8153 105.9 34.0409 106.1 34.2371C106.3 34.4333 106.56 34.5216 106.87 34.5216C107.22 34.5216 107.55 34.4137 107.86 34.1881C108.09 34.0213 108.25 33.8055 108.32 33.5602C108.37 33.4033 108.4 33.0894 108.4 32.6381V32.2751ZM105.83 30.7447L104.09 30.4406C104.29 29.7539 104.62 29.2438 105.1 28.9102C105.58 28.5767 106.29 28.4099 107.23 28.4099C108.09 28.4099 108.72 28.5081 109.14 28.7141C109.56 28.9103 109.85 29.1653 110.02 29.4694C110.19 29.7735 110.28 30.3328 110.28 31.1568L110.26 33.3543C110.26 33.9821 110.29 34.4431 110.35 34.7472C110.41 35.0415 110.53 35.3555 110.7 35.6989H108.8C108.75 35.5714 108.69 35.3849 108.62 35.1397C108.59 35.0317 108.57 34.9533 108.55 34.914C108.22 35.228 107.87 35.4634 107.5 35.6203C107.13 35.7773 106.73 35.8558 106.3 35.8558C105.55 35.8558 104.96 35.6596 104.53 35.2574C104.1 34.8552 103.89 34.3548 103.89 33.7466C103.89 33.3444 103.99 32.9912 104.18 32.6773C104.38 32.3634 104.65 32.1181 105 31.9514C105.36 31.7846 105.87 31.6375 106.53 31.51C107.43 31.3432 108.05 31.1861 108.4 31.0488V30.8625C108.4 30.4995 108.31 30.2444 108.13 30.0874C107.95 29.9305 107.6 29.852 107.1 29.852C106.76 29.852 106.49 29.9207 106.3 30.0581C106.11 30.1856 105.95 30.4112 105.83 30.7447ZM102.44 35.6989H100.52V32.0593C100.52 31.2941 100.48 30.7937 100.4 30.5681C100.32 30.3425 100.18 30.166 99.9998 30.0384C99.8198 29.9109 99.5998 29.852 99.3398 29.852C99.0098 29.852 98.7098 29.9403 98.4398 30.1169C98.1798 30.2935 97.9898 30.5289 97.8898 30.8232C97.7898 31.1175 97.7498 31.6669 97.7498 32.4615V35.6891H95.8298V28.5669H97.6098V29.6165C98.2398 28.8121 99.0398 28.4099 99.9998 28.4099C100.42 28.4099 100.81 28.4884 101.16 28.6355C101.51 28.7827 101.78 28.9692 101.95 29.2046C102.13 29.44 102.26 29.7049 102.33 29.9992C102.4 30.2935 102.44 30.7153 102.44 31.2647V35.6989ZM88.7998 32.1378C88.7998 32.8441 88.9698 33.3836 89.3098 33.7564C89.6498 34.1292 90.0698 34.3156 90.5698 34.3156C91.0698 34.3156 91.4898 34.1292 91.8298 33.7564C92.1698 33.3836 92.3398 32.8343 92.3398 32.1182C92.3398 31.4217 92.1698 30.8821 91.8298 30.5093C91.4898 30.1365 91.0698 29.9501 90.5698 29.9501C90.0698 29.9501 89.6498 30.1365 89.3098 30.5093C88.9698 30.8821 88.7998 31.4315 88.7998 32.1378ZM86.8298 32.0298C86.8298 31.402 86.9898 30.7938 87.2998 30.215C87.6098 29.6263 88.0598 29.1849 88.6298 28.871C89.2098 28.5669 89.8498 28.4099 90.5598 28.4099C91.6598 28.4099 92.5598 28.763 93.2598 29.4596C93.9598 30.1561 94.3098 31.0391 94.3098 32.1084C94.3098 33.1875 93.9498 34.0802 93.2398 34.7865C92.5298 35.4928 91.6398 35.846 90.5698 35.846C89.8998 35.846 89.2698 35.6989 88.6598 35.4045C88.0598 35.1102 87.5998 34.6787 87.2898 34.1097C86.9898 33.5505 86.8298 32.8539 86.8298 32.0298ZM83.3798 35.6989V28.5767H85.2998V35.6989H83.3798ZM83.3798 27.6055V25.8593H85.2998V27.6055H83.3798ZM74.9098 33.6583L76.8398 33.3739C76.9198 33.7369 77.0898 34.0213 77.3398 34.2077C77.5898 34.3941 77.9398 34.4922 78.3898 34.4922C78.8898 34.4922 79.2598 34.404 79.5098 34.2274C79.6798 34.0998 79.7598 33.9331 79.7598 33.7271C79.7598 33.5799 79.7098 33.4622 79.6198 33.3739C79.5198 33.2856 79.3098 33.1973 78.9798 33.1287C77.4298 32.7951 76.4498 32.4909 76.0298 32.2064C75.4598 31.8238 75.1698 31.2843 75.1698 30.6074C75.1698 29.9893 75.4198 29.4694 75.9198 29.0476C76.4198 28.6258 77.1898 28.4197 78.2298 28.4197C79.2198 28.4197 79.9598 28.5767 80.4398 28.9004C80.9198 29.2144 81.2598 29.6852 81.4398 30.313L79.6298 30.6368C79.5498 30.3622 79.3998 30.1463 79.1898 29.9992C78.9798 29.852 78.6698 29.7735 78.2698 29.7735C77.7598 29.7735 77.3998 29.8422 77.1798 29.9795C77.0298 30.0776 76.9598 30.2052 76.9598 30.3621C76.9598 30.4995 77.0198 30.6074 77.1498 30.7055C77.3198 30.833 77.9198 31.0096 78.9398 31.2352C79.9698 31.4609 80.6798 31.7453 81.0898 32.0691C81.4898 32.4026 81.6898 32.8736 81.6898 33.472C81.6898 34.1293 81.4098 34.6884 80.8598 35.1593C80.2998 35.6302 79.4798 35.8656 78.3898 35.8656C77.3998 35.8656 76.6198 35.6694 76.0398 35.277C75.4698 34.8748 75.0898 34.3352 74.9098 33.6583ZM71.6898 35.6989V25.8691H73.6098V35.6989H71.6898ZM67.9098 35.6989V34.6295C67.6498 35.0121 67.2998 35.3065 66.8598 35.5321C66.4298 35.7479 65.9798 35.8558 65.4998 35.8558C65.0098 35.8558 64.5698 35.7479 64.1898 35.5419C63.7998 35.3359 63.5198 35.0416 63.3498 34.659C63.1798 34.2764 63.0898 33.7565 63.0898 33.0796V28.5767H65.0098V31.8533C65.0098 32.8539 65.0398 33.472 65.1098 33.6976C65.1798 33.9232 65.3098 34.0997 65.4998 34.2371C65.6898 34.3646 65.9198 34.4334 66.2098 34.4334C66.5398 34.4334 66.8298 34.345 67.0898 34.1685C67.3498 33.9919 67.5298 33.7662 67.6198 33.5111C67.7198 33.2463 67.7598 32.6086 67.7598 31.5884V28.5866H69.6798V35.7086H67.9098V35.6989ZM56.4198 32.0103C56.4198 32.8147 56.5798 33.4033 56.9098 33.7859C57.2298 34.1684 57.6298 34.3549 58.0898 34.3549C58.5398 34.3549 58.9098 34.1783 59.1998 33.835C59.4998 33.4818 59.6398 32.903 59.6398 32.1084C59.6398 31.3628 59.4898 30.8035 59.1798 30.4406C58.8698 30.0776 58.4998 29.9011 58.0498 29.9011C57.5798 29.9011 57.1898 30.0776 56.8798 30.4406C56.5798 30.7937 56.4198 31.3138 56.4198 32.0103ZM54.5198 28.5767H56.3098V29.6264C56.5398 29.2732 56.8598 28.9789 57.2498 28.7533C57.6498 28.5276 58.0898 28.4197 58.5698 28.4197C59.4098 28.4197 60.1298 28.7435 60.7198 29.3909C61.3098 30.0384 61.5998 30.9409 61.5998 32.0985C61.5998 33.2856 61.2998 34.2175 60.7098 34.8748C60.1198 35.532 59.3998 35.8558 58.5598 35.8558C58.1598 35.8558 57.7898 35.7773 57.4698 35.6203C57.1498 35.4634 56.7998 35.1986 56.4398 34.816V38.4064H54.5198V28.5767ZM41.9798 28.5767H43.7498V29.5479C44.3798 28.7926 45.1398 28.4099 46.0098 28.4099C46.4698 28.4099 46.8798 28.5081 47.2198 28.6945C47.5598 28.8808 47.8398 29.1653 48.0598 29.5479C48.3798 29.1653 48.7198 28.8808 49.0898 28.6945C49.4598 28.5081 49.8498 28.4099 50.2698 28.4099C50.7998 28.4099 51.2498 28.5178 51.6198 28.7336C51.9898 28.9396 52.2598 29.2536 52.4498 29.6656C52.5798 29.9698 52.6498 30.4603 52.6498 31.1372V35.6891H50.7298V31.6179C50.7298 30.9115 50.6598 30.4602 50.5298 30.2542C50.3498 29.9894 50.0798 29.852 49.7098 29.852C49.4398 29.852 49.1898 29.9305 48.9498 30.0972C48.7098 30.2542 48.5398 30.4994 48.4398 30.8035C48.3398 31.1077 48.2798 31.5982 48.2798 32.2751V35.6989H46.3598V31.7944C46.3598 31.0978 46.3298 30.6564 46.2598 30.4504C46.1898 30.2444 46.0798 30.0973 45.9398 29.9992C45.7998 29.9011 45.6098 29.852 45.3598 29.852C45.0598 29.852 44.7998 29.9305 44.5598 30.0874C44.3198 30.2444 44.1498 30.4701 44.0498 30.7644C43.9498 31.0587 43.8998 31.5492 43.8998 32.2359V35.6989H41.9798V28.5767ZM38.1798 35.6989V25.8691H40.1998V35.6989H38.1798Z" fill="#00213A"/>
<path d="M541.68 24.4957C542.05 24.8489 542.28 25.3394 542.28 25.879C542.28 26.9483 541.4 27.8115 540.31 27.8115H535.78V21.4349H540.23C541.28 21.4349 542.12 22.2688 542.12 23.2989C542.12 23.7502 541.95 24.172 541.68 24.4957ZM537.32 26.4479H540.11C540.45 26.4479 540.73 26.1732 540.73 25.8397C540.73 25.5061 540.45 25.2315 540.11 25.2315H537.32V26.4479ZM537.32 23.8678H540.03C540.33 23.8678 540.57 23.6323 540.57 23.338C540.57 23.0437 540.33 22.8084 540.03 22.8084H537.32V23.8678Z" fill="#00213A"/>
<path d="M538.72 30.6663L537.58 32.9815H539.86L538.72 30.6663ZM542.72 35.4144H541.06L540.54 34.3549H536.9L536.38 35.4144H534.72L537.97 29.0378H539.48L542.72 35.4144Z" fill="#00213A"/>
<path d="M540.92 36.778H542.79L539.49 40.9277V43.1546H537.94V40.9277L534.65 36.778H536.51L538.72 39.6818L540.92 36.778Z" fill="#00213A"/>
<path d="M549.54 36.778V38.1416H545.21V39.2109H549.39V40.5745H545.21V41.791H549.54V43.1546H543.66V36.778H549.54Z" fill="#00213A"/>
<path d="M555.41 38.1416H553.16V39.3581H555.41C555.75 39.3581 556.02 39.0834 556.02 38.7499C556.03 38.4163 555.75 38.1515 555.41 38.1416ZM554.33 40.7315H553.17V43.1644H551.62V36.7878H555.57C556.68 36.7878 557.58 37.6708 557.58 38.7597C557.58 39.6622 556.97 40.4175 556.14 40.653L558.05 43.1644H556.19L554.33 40.7315Z" fill="#00213A"/>
<path d="M531.36 38.4064L530.22 40.7217H532.5L531.36 38.4064ZM535.37 43.1546H533.71L533.19 42.095H529.55L529.03 43.1546H527.37L530.62 36.778H532.13L535.37 43.1546Z" fill="#00213A"/>
<path d="M525.9 39.8388C526.27 40.1919 526.5 40.6825 526.5 41.222C526.5 42.2913 525.62 43.1546 524.53 43.1546H520V36.778H524.45C525.5 36.778 526.34 37.6119 526.34 38.642C526.35 39.0932 526.18 39.515 525.9 39.8388ZM521.55 41.791H524.34C524.68 41.791 524.96 41.5163 524.96 41.1828C524.96 40.8492 524.68 40.5745 524.34 40.5745H521.55V41.791ZM521.55 39.2109H524.26C524.56 39.2109 524.8 38.9754 524.8 38.6811C524.8 38.3868 524.56 38.1515 524.26 38.1515H521.55V39.2109Z" fill="#00213A"/>
<path d="M541.66 44.5182V45.8915H537.32V46.9511H541.5V48.3147H537.32V49.5311H541.66V50.8948H535.78V44.5182H541.66Z" fill="#00213A"/>
<path d="M535.78 58.7919V52.4153H540.12C541.23 52.4251 542.12 53.308 542.12 54.3969C542.12 55.221 541.6 55.9273 540.87 56.2314L542.82 58.8017H540.96L539.1 56.3688H537.32V58.8017H535.78V58.7919ZM540.57 54.3969C540.57 54.0634 540.3 53.7887 539.96 53.7887H537.33V55.0052H539.96C540.3 54.9954 540.57 54.7207 540.57 54.3969Z" fill="#00213A"/>
<path d="M562.169 38.6419C561.419 26.5755 551.209 17.0204 538.719 17.0204C526.229 17.0204 516.02 26.5755 515.27 38.6419C515.3 39.1226 515.34 39.6033 515.4 40.084C515.91 44.0963 517.469 47.785 519.799 50.8948C524.08 56.5847 530.959 60.2732 538.719 60.2732C527.859 60.2732 518.93 51.9738 518.18 41.5064C518.15 41.0355 518.13 40.5549 518.13 40.0742C518.13 39.5935 518.15 39.1128 518.18 38.6419C518.93 28.1647 527.849 19.8752 538.719 19.8752C546.479 19.8752 553.36 23.5637 557.64 29.2634C559.97 32.3634 561.529 36.0717 562.039 40.084C562.099 40.5549 562.149 41.0257 562.169 41.4966C562.199 41.0257 562.219 40.5451 562.219 40.0644C562.219 39.5935 562.199 39.1128 562.169 38.6419Z" fill="#A2C223"/>
<path d="M515.27 41.4966C516.02 53.5631 526.23 63.1182 538.72 63.1182C551.21 63.1182 561.42 53.5631 562.17 41.4966C562.14 41.0159 562.1 40.5353 562.04 40.0546C561.53 36.0422 559.97 32.3438 557.64 29.2438C553.36 23.5539 546.48 19.8654 538.72 19.8654C549.58 19.8654 558.51 28.1647 559.26 38.6321C559.29 39.103 559.31 39.5837 559.31 40.0644C559.31 40.5451 559.29 41.0159 559.26 41.4966C558.51 51.9738 549.59 60.2634 538.72 60.2634C530.96 60.2634 524.08 56.5748 519.8 50.885C517.47 47.7752 515.91 44.0767 515.4 40.0546C515.34 39.5837 515.29 39.1128 515.27 38.6321C515.24 39.103 515.22 39.5837 515.22 40.0644C515.22 40.5549 515.24 41.0257 515.27 41.4966Z" fill="#00B2ED"/>
</svg>
